# xmcd
#
# Track frame offsets: 
#        150
#        24242
#        48333
#        73518
#        98776
#
# Disc length: 1646 seconds
#
# Revision: 0
# Processed by: cddbd v1.5.2PL0 Copyright (c) Steve Scherf et al.
# Submitted via: ExactAudioCopy v0.90b4
#
DISCID=35066c05
DTITLE=R. Kelly - I'm A Flirt Remix (ft T.I. and T-Pain) - [CDS)
DYEAR=2007
DGENRE=R&B
TTITLE0=I'm A Flirt Remix (Clean Radio Version) (ft T.I. and T-Pain)
TTITLE1=I'm A Flirt Remix (Squaky Clean Radio Version) (ft T.I. and T-Pa
TTITLE1=in)
TTITLE2=I'm A Flirt Remix (Main Version) (ft T.I. and T-Pain)
TTITLE3=I'm A Flirt Remix (Instrumental)
TTITLE4=I'm A Flirt Remix (Clean Acappella) (ft T.I. and T-Pain)
EXTD=
EXTT0=
EXTT1=
EXTT2=
EXTT3=
EXTT4=
PLAYORDER=
